<svg width="65" height="70" viewBox="0 0 65 70" fill="none" xmlns="http://www.w3.org/2000/svg">
<path d="M23.3971 64.1511C23.3971 65.4432 22.3494 66.4909 21.0573 66.4909C19.7652 66.4909 18.7176 65.4432 18.7176 64.1511C18.7176 62.859 19.7652 61.8114 21.0573 61.8114C22.3494 61.8114 23.3971 62.859 23.3971 64.1511Z" fill="#535067"/>
<path d="M53.8138 64.1511C53.8138 65.4432 52.7662 66.4909 51.4741 66.4909C50.182 66.4909 49.1343 65.4432 49.1343 64.1511C49.1343 62.859 50.182 61.8114 51.4741 61.8114C52.7662 61.8114 53.8138 62.859 53.8138 64.1511Z" fill="#535067"/>
<path d="M35.096 16.3815C38.3262 16.3815 40.9453 13.7625 40.9453 10.5322C40.9453 7.30135 38.3262 4.68286 35.096 4.68286C31.8651 4.68286 29.2466 7.30135 29.2466 10.5322C29.2506 13.7607 31.8668 16.3775 35.096 16.3815ZM35.096 7.02259C37.0341 7.02259 38.6056 8.59403 38.6056 10.5322C38.6056 12.4703 37.0341 14.0418 35.096 14.0418C33.1578 14.0418 31.5864 12.4703 31.5864 10.5322C31.5864 8.59403 33.1578 7.02259 35.096 7.02259Z" fill="#535067"/>
<path d="M34.1202 28.1396C34.3367 28.4669 34.7034 28.664 35.0958 28.664C35.4883 28.664 35.855 28.4669 36.0715 28.1396L43.7927 16.4552C46.7785 12.0705 46.0359 6.14865 42.0596 2.63677C38.0833 -0.874539 32.1152 -0.87968 28.1332 2.62592C24.1512 6.13094 23.3989 12.0517 26.3778 16.441L34.1202 28.1396ZM35.0958 2.34316C38.1324 2.34316 40.9194 4.0237 42.3372 6.70902C43.7544 9.39377 43.5699 12.6435 41.8574 15.1506L35.0958 25.3743L28.3257 15.1334C26.6223 12.6252 26.4441 9.38063 27.8624 6.70102C29.2808 4.02141 32.0638 2.34487 35.0958 2.34316Z" fill="#535067"/>
<path d="M45.6248 50.1122H54.9837C55.6297 50.1122 56.1535 49.5884 56.1535 48.9424V45.4328C56.1535 45.1671 56.0633 44.909 55.8971 44.7016L51.2176 38.8523C50.9954 38.5747 50.6595 38.4136 50.3042 38.4136H45.6248C44.9787 38.4136 44.4549 38.9374 44.4549 39.5834V48.9424C44.4549 49.5884 44.9787 50.1122 45.6248 50.1122ZM46.7946 40.7533H49.7427L53.8138 45.8435V47.7725H46.7946V40.7533Z" fill="#535067"/>
<path d="M1.16987 54.7916C0.523812 54.7916 0 55.3154 0 55.9614C0 56.6075 0.523812 57.1313 1.16987 57.1313H8.18906V59.471H5.84933C5.20327 59.471 4.67946 59.9948 4.67946 60.6409V65.3204C4.67946 65.9664 5.20327 66.4902 5.84933 66.4902H15.7041C16.6312 68.6215 18.7333 69.9998 21.0576 69.9998C23.3813 69.9998 25.484 68.6215 26.4105 66.4902H46.1206C47.0477 68.6215 49.1498 69.9998 51.4741 69.9998C53.7978 69.9998 55.9005 68.6215 56.827 66.4902H63.1727C63.8188 66.4902 64.3426 65.9664 64.3426 65.3204V60.6409C64.3426 59.9948 63.8188 59.471 63.1727 59.471H60.833V44.4359C60.8313 44.1857 60.749 43.9423 60.5988 43.7418L53.5796 34.2098C53.3602 33.9122 53.0135 33.7357 52.6439 33.734H42.1151V32.5642C42.1151 31.9181 41.5913 31.3943 40.9453 31.3943H9.35892C8.71287 31.3943 8.18906 31.9181 8.18906 32.5642V33.734H3.50959C2.86354 33.734 2.33973 34.2578 2.33973 34.9039C2.33973 35.5499 2.86354 36.0737 3.50959 36.0737H8.18906V40.7532H1.16987C0.523812 40.7532 0 41.277 0 41.9231C0 42.5691 0.523812 43.0929 1.16987 43.0929H8.18906V47.7724H3.50959C2.86354 47.7724 2.33973 48.2962 2.33973 48.9423C2.33973 49.5883 2.86354 50.1121 3.50959 50.1121H8.18906V54.7916H1.16987ZM28.0768 44.2628V46.6025H22.2274V44.2628H28.0768ZM22.2274 41.9231V33.734H28.0768V41.9231H22.2274ZM21.0576 48.9423H29.2466C29.8927 48.9423 30.4165 48.4184 30.4165 47.7724V44.2628H39.7754V59.471H24.5672C24.5563 59.471 24.5483 59.4767 24.538 59.4767C22.4822 57.9093 19.6324 57.9093 17.5771 59.4767C17.5668 59.4767 17.5583 59.471 17.548 59.471H10.5288V44.2628H19.8877V47.7724C19.8877 48.4184 20.4115 48.9423 21.0576 48.9423ZM7.01919 64.1505V61.8108H15.7041C15.3779 62.5476 15.2088 63.3445 15.2082 64.1505H7.01919ZM21.0576 67.6601C19.1194 67.6601 17.548 66.0886 17.548 64.1505C17.548 62.2123 19.1194 60.6409 21.0576 60.6409C22.9957 60.6409 24.5672 62.2123 24.5672 64.1505C24.5672 66.0886 22.9957 67.6601 21.0576 67.6601ZM26.9069 64.1505C26.9063 63.3445 26.7372 62.5476 26.4105 61.8108H46.1206C45.7944 62.5476 45.6253 63.3445 45.6247 64.1505H26.9069ZM51.4741 67.6601C49.5359 67.6601 47.9645 66.0886 47.9645 64.1505C47.9645 62.2123 49.5359 60.6409 51.4741 60.6409C53.4122 60.6409 54.9837 62.2123 54.9837 64.1505C54.9837 66.0886 53.4122 67.6601 51.4741 67.6601ZM62.0028 64.1505H57.3234C57.3228 63.3445 57.1537 62.5476 56.827 61.8108H62.0028V64.1505ZM54.9837 59.471C54.9728 59.471 54.9648 59.4767 54.9545 59.4767C52.8987 57.9093 50.0489 57.9093 47.9936 59.4767C47.9833 59.4767 47.9747 59.471 47.9645 59.471H42.1151V54.7916H58.4933V59.471H54.9837ZM52.059 36.0737L58.4933 44.8209V52.4518H42.1151V36.0737H52.059ZM39.7754 41.9231H30.4165V33.734H39.7754V41.9231ZM10.5288 33.734H19.8877V41.9231H10.5288V33.734Z" fill="#535067"/>
<path d="M32.756 48.9426H37.4355V51.2824H32.756V48.9426Z" fill="#535067"/>
<path d="M30.4161 53.6218H37.4353V55.9616H30.4161V53.6218Z" fill="#535067"/>
</svg>
