<svg width="60" height="60" viewBox="0 0 60 60" fill="none" xmlns="http://www.w3.org/2000/svg">
<g clip-path="url(#clip0_207:1114)">
<path d="M58 15H17C16.4477 15 16 15.4477 16 16C16 16.5523 16.4477 17 17 17H23.045C18.6071 19.8239 15.9429 24.7401 16 30C15.9429 35.2599 18.6071 40.1761 23.045 43H2V17H12C12.5523 17 13 16.5523 13 16C13 15.4477 12.5523 15 12 15H2C0.89543 15 0 15.8954 0 17V43C0 44.1046 0.89543 45 2 45H58C59.1046 45 60 44.1046 60 43V17C60 15.8954 59.1046 15 58 15ZM18 30C18 22.832 23.383 17 30 17C36.617 17 42 22.832 42 30C42 37.168 36.617 43 30 43C23.383 43 18 37.168 18 30ZM58 43H36.955C41.3929 40.1761 44.0571 35.2599 44 30C44.0571 24.7401 41.3929 19.8239 36.955 17H58V43Z" fill="#535067"/>
<path d="M52.736 4.21C52.2626 3.97308 51.7145 3.93352 51.212 4.1L29.672 11.319C29.1473 11.4946 28.8644 12.0623 29.04 12.587C29.2156 13.1117 29.7833 13.3946 30.308 13.219L51.842 6L54.052 12.589C54.1654 12.9284 54.4513 13.1815 54.802 13.253C55.1526 13.3244 55.5147 13.2034 55.752 12.9355C55.9892 12.6675 56.0654 12.2934 55.952 11.954L53.741 5.369C53.5762 4.8628 53.2138 4.44477 52.736 4.21Z" fill="#535067"/>
<path d="M29.692 46.782L8.158 54L5.948 47.411C5.77265 46.8863 5.20517 46.6031 4.6805 46.7785C4.15583 46.9538 3.87265 47.5213 4.048 48.046L6.255 54.629C6.41857 55.1343 6.77913 55.5522 7.255 55.788C7.53186 55.9257 7.83679 55.9976 8.146 55.998C8.36096 55.9983 8.57461 55.9645 8.779 55.898L30.319 48.679C30.8437 48.5034 31.1266 47.9357 30.951 47.411C30.7754 46.8863 30.2077 46.6034 29.683 46.779L29.692 46.782Z" fill="#535067"/>
<path d="M33 26.5C33 27.0523 33.4477 27.5 34 27.5C34.5523 27.5 35 27.0523 35 26.5C34.9035 24.2584 33.2217 22.4046 31 22.091V22C31 21.4477 30.5523 21 30 21C29.4477 21 29 21.4477 29 22V22.091C26.7784 22.4046 25.0965 24.2584 25 26.5C25.0965 28.7416 26.7784 30.5954 29 30.909V35.846C27.8872 35.5935 27.0732 34.6388 27 33.5C27 32.9477 26.5523 32.5 26 32.5C25.4477 32.5 25 32.9477 25 33.5C25.0965 35.7416 26.7784 37.5954 29 37.909V38C29 38.5523 29.4477 39 30 39C30.5523 39 31 38.5523 31 38V37.909C33.2217 37.5954 34.9035 35.7416 35 33.5C34.9035 31.2584 33.2217 29.4046 31 29.091V24.154C32.1128 24.4065 32.9268 25.3612 33 26.5ZM27 26.5C27.0732 25.3612 27.8872 24.4065 29 24.154V28.846C27.8872 28.5935 27.0732 27.6388 27 26.5ZM33 33.5C32.9268 34.6388 32.1128 35.5935 31 35.846V31.154C32.1128 31.4065 32.9268 32.3612 33 33.5Z" fill="#535067"/>
<path d="M51 41H55C55.5523 41 56 40.5523 56 40V36C56 35.4477 55.5523 35 55 35C54.4477 35 54 35.4477 54 36V39H51C50.4477 39 50 39.4477 50 40C50 40.5523 50.4477 41 51 41Z" fill="#535067"/>
<path d="M5 35C4.44772 35 4 35.4477 4 36V40C4 40.5523 4.44772 41 5 41H9C9.55228 41 10 40.5523 10 40C10 39.4477 9.55228 39 9 39H6V36C6 35.4477 5.55228 35 5 35Z" fill="#535067"/>
<path d="M9 19H5C4.44772 19 4 19.4477 4 20V24C4 24.5523 4.44772 25 5 25C5.55228 25 6 24.5523 6 24V21H9C9.55228 21 10 20.5523 10 20C10 19.4477 9.55228 19 9 19Z" fill="#535067"/>
<path d="M51 21H54V24C54 24.5523 54.4477 25 55 25C55.5523 25 56 24.5523 56 24V20C56 19.4477 55.5523 19 55 19H51C50.4477 19 50 19.4477 50 20C50 20.5523 50.4477 21 51 21Z" fill="#535067"/>
</g>
<defs>
<clipPath id="clip0_207:1114">
<rect width="60" height="60" fill="white"/>
</clipPath>
</defs>
</svg>
